<?xml version="1.0" standalone="no"?><!DOCTYPE svg PUBLIC "-//W3C//DTD SVG 1.1//EN" "http://www.w3.org/Graphics/SVG/1.1/DTD/svg11.dtd"><svg t="1724923030380" class="icon" viewBox="0 0 1024 1024" version="1.1" xmlns="http://www.w3.org/2000/svg" p-id="4276" xmlns:xlink="http://www.w3.org/1999/xlink" width="200" height="200"><path d="M455.111111 512h113.777778v113.777778H455.111111zM341.333333 512h113.777778v113.777778H341.333333zM341.333333 625.777778h113.777778v113.777778H341.333333zM227.555556 625.777778h113.777777v113.777778H227.555556zM455.111111 398.222222h113.777778v113.777778H455.111111zM568.888889 56.888889h113.777778v113.777778h-113.777778zM568.888889 398.222222h113.777778v113.777778h-113.777778zM341.333333 284.444444h113.777778v113.777778H341.333333zM341.333333 398.222222h113.777778v113.777778H341.333333zM341.333333 170.666667h113.777778v113.777777H341.333333zM113.777778 170.666667h113.777778v113.777777H113.777778zM113.777778 56.888889h113.777778v113.777778H113.777778zM227.555556 398.222222h113.777777v113.777778H227.555556zM113.777778 398.222222h113.777778v113.777778H113.777778zM0 398.222222h113.777778v113.777778H0zM227.555556 512h113.777777v113.777778H227.555556zM113.777778 512h113.777778v113.777778H113.777778zM227.555556 284.444444h113.777777v113.777778H227.555556zM455.111111 284.444444h113.777778v113.777778H455.111111zM455.111111 170.666667h113.777778v113.777777H455.111111zM227.555556 56.888889h113.777777v113.777778H227.555556zM341.333333 56.888889h113.777778v113.777778H341.333333zM0 284.444444h113.777778v113.777778H0zM0 170.666667h113.777778v113.777777H0zM568.888889 284.444444h113.777778v113.777778h-113.777778zM682.666667 625.777778h113.777777v113.777778h-113.777777zM796.444444 512h113.777778v113.777778h-113.777778zM568.888889 739.555556h113.777778v113.777777h-113.777778zM455.111111 853.333333h113.777778v113.777778H455.111111zM910.222222 398.222222h113.777778v113.777778h-113.777778zM910.222222 284.444444h113.777778v113.777778h-113.777778zM796.444444 284.444444h113.777778v113.777778h-113.777778zM796.444444 56.888889h113.777778v113.777778h-113.777778zM910.222222 170.666667h113.777778v113.777777h-113.777778zM796.444444 398.222222h113.777778v113.777778h-113.777778zM682.666667 512h113.777777v113.777778h-113.777777zM568.888889 625.777778h113.777778v113.777778h-113.777778zM455.111111 739.555556h113.777778v113.777777H455.111111zM682.666667 56.888889h113.777777v113.777778h-113.777777zM682.666667 284.444444h113.777777v113.777778h-113.777777zM568.888889 170.666667h113.777778v113.777777h-113.777778zM796.444444 170.666667h113.777778v113.777777h-113.777778zM682.666667 170.666667h113.777777v113.777777h-113.777777zM682.666667 398.222222h113.777777v113.777778h-113.777777zM568.888889 512h113.777778v113.777778h-113.777778zM455.111111 625.777778h113.777778v113.777778H455.111111zM341.333333 739.555556h113.777778v113.777777H341.333333z" fill="#d81e06" p-id="4277"></path></svg>